<svg width="20" height="15" viewBox="0 0 20 15" fill="none" xmlns="http://www.w3.org/2000/svg">
<path d="M8.21673 0.0607758C8.11401 0.0950155 7.84944 0.210184 7.62532 0.32224C6.94054 0.658409 0.506641 4.1944 0.366571 4.30957C0.0802047 4.54925 -0.0598655 5.03483 0.0241766 5.51418C0.101993 5.95929 0.242064 6.2083 0.634261 6.6005C0.839697 6.80282 2.6575 8.3187 5.44645 10.6096C10.1964 14.5129 10.103 14.4413 10.5294 14.5316C10.8812 14.6063 11.317 14.5503 11.6189 14.3977C11.7029 14.3542 12.229 14.018 12.7955 13.6445C13.8756 12.9317 16.4747 11.2228 17.0598 10.8431L17.4053 10.619L17.4583 10.8867C17.5641 11.4251 17.8536 11.9263 18.3485 12.4212C18.6068 12.6827 19.0582 13.0562 19.0831 13.0313C19.0893 13.0282 19.108 12.9255 19.1267 12.8072C19.192 12.3932 19.4099 12.0726 19.7492 11.892C19.8893 11.8142 19.9079 11.7956 19.8581 11.78C19.1204 11.5403 18.6193 10.9022 18.4917 10.0369L18.473 9.91238L19.1951 9.44237C19.6153 9.17468 19.9391 8.94123 19.964 8.89765C20.0542 8.73579 20.0013 8.67354 19.4971 8.34048C19.2263 8.15995 18.9959 8.02922 18.9523 8.02922C18.9088 8.02922 18.6691 8.16306 18.3921 8.3436L17.9065 8.65486L17.7633 8.56148C17.6046 8.46188 17.3306 8.37161 17.1875 8.37161C17.1252 8.37161 16.9384 8.47122 16.6023 8.68599C16.3284 8.8603 16.098 9.01282 16.0918 9.02527C16.0825 9.04084 16.1198 9.06262 16.1758 9.07196C16.3128 9.10309 16.6365 9.2525 16.7206 9.32409L16.789 9.38323L14.2055 11.0485C12.783 11.9636 11.5846 12.7325 11.538 12.7574C11.4228 12.8165 11.18 12.8103 11.0617 12.7418C11.0057 12.7076 10.9185 12.6297 10.8656 12.5644C10.7816 12.4585 10.7691 12.4212 10.7691 12.2531C10.7691 12.1068 10.7847 12.0321 10.8407 11.945C10.8999 11.8516 11.5753 11.4096 14.8436 9.33654C19.0768 6.65342 18.8776 6.79349 18.8776 6.52891C18.8776 6.3795 18.7811 6.24566 18.5757 6.10559C18.0248 5.73518 9.75751 0.418734 9.52094 0.281775C9.36531 0.194621 9.15987 0.0950155 9.06338 0.0607758C8.83304 -0.020154 8.47197 -0.020154 8.21673 0.0607758ZM9.66724 3.43802L9.9038 3.49405L10.2898 4.44653C10.6353 5.30252 10.6757 5.4208 10.6851 5.62312C10.6975 5.80988 10.6851 5.87214 10.6228 6.01221C10.4734 6.33281 10.2275 6.53202 9.80108 6.67832C9.59253 6.74991 9.50227 6.76236 9.21279 6.76236C8.65251 6.76547 8.18561 6.59739 7.82765 6.26744C7.22068 5.70405 7.32962 4.91966 8.06732 4.54614C8.17004 4.49633 8.33813 4.43097 8.44084 4.40607C8.67429 4.34381 9.17855 4.3407 9.42445 4.39984C9.58942 4.43719 9.60498 4.43719 9.58631 4.3905C9.39955 3.88002 9.37153 3.83333 9.25948 3.81466C9.05093 3.78042 8.54979 3.79598 8.29144 3.84579C7.77162 3.94228 7.2767 4.20063 7.00279 4.51812C6.82225 4.72667 6.67596 5.05661 6.65417 5.31185C6.61682 5.77564 6.77245 6.14294 7.18644 6.5507C7.49148 6.85263 7.78096 7.03005 8.19806 7.17323C9.44935 7.59656 10.8687 7.18257 11.3045 6.26744C11.4166 6.03399 11.4228 6.00909 11.4197 5.71028C11.4197 5.35232 11.3605 5.16245 11.1582 4.86363L11.0399 4.68309L11.2609 4.56481L11.485 4.44653L11.5878 4.56481C11.7372 4.73912 11.9302 5.14999 11.9862 5.41457C12.1947 6.41063 11.457 7.35688 10.2182 7.68371C8.24163 8.20041 6.0223 6.99892 6.0223 5.40835C6.0223 4.44342 6.85338 3.63724 8.086 3.40379C8.4066 3.34464 9.35286 3.36332 9.66724 3.43802Z" fill="white" fill-opacity="0.7"/>
<path d="M8.62441 4.93523C8.46567 4.99126 8.30381 5.11577 8.2291 5.24027C8.13572 5.38657 8.15751 5.67916 8.27268 5.83168C8.47189 6.09003 8.77071 6.22388 9.14734 6.22388C9.45861 6.22388 9.67961 6.13983 9.84458 5.96241C10.0189 5.77254 10.0438 5.60134 9.93174 5.371C9.77922 5.05974 9.44616 4.88543 9.01038 4.88854C8.86098 4.88854 8.69289 4.91033 8.62441 4.93523Z" fill="white" fill-opacity="0.7"/>
</svg>
