<svg id="logoSvg" width="256" height="256" xmlns="http://www.w3.org/2000/svg"><rect x="0" y="0" width="256" height="256" fill="none"/>
        <g id="svgGroup" fill="none" stroke="#3d3d3d" stroke-width="0.04296875" transform="translate(128 128) scale(256)" stroke-linecap="round" stroke-linejoin="round">
          <polyline points="-0.2664693550105965,-0.34615384615384615 -0.3330866937632456,-0.2307692307692308 0.03330866937632456,-0.019230769230769232 0.03330866937632456,0.4038461538461539 0.1665433468816228,0.40384615384615385 0.1665433468816228,-0.09615384615384616 -0.2664693550105965,-0.34615384615384615 -0.3330866937632456,-0.2307692307692308 "/>
          <polyline points="-0.36639536313957016,-0.17307692307692307 -0.4330127018922193,-0.05769230769230771 -0.1665433468816228,0.09615384615384616 -0.1665433468816228,0.40384615384615385 -0.03330866937632456,0.40384615384615385 -0.03330866937632456,0.019230769230769232 -0.36639536313957016,-0.17307692307692307 -0.4330127018922193,-0.05769230769230771 "/>
          <polyline points="0.06661733875264912,-0.23076923076923078 0.2664693550105965,-0.34615384615384615 0.3330866937632456,-0.23076923076923078 0.19985201625794735,-0.15384615384615385 0.06661733875264912,-0.23076923076923078 0.2664693550105965,-0.34615384615384615 "/>
          <polyline points="0.23316068563427192,0.05769230769230768 0.4330127018922193,-0.05769230769230768 0.36639536313957016,-0.1730769230769231 0.23316068563427192,-0.09615384615384617 0.23316068563427192,0.05769230769230768 0.4330127018922193,-0.05769230769230768 "/>
          <circle cx="0.0" cy="-0.34615384615384615" r="0.07692307692307693"/>
          <circle cx="0.299778024386921" cy="0.17307692307692307" r="0.07692307692307693"/>
          <circle cx="-0.299778024386921" cy="0.17307692307692307" r="0.07692307692307693"/>
        </g>
      </svg>