<svg width="20" height="20" viewBox="0 0 20 20" fill="none" xmlns="http://www.w3.org/2000/svg">
<g clip-path="url(#clip0_389_90)">
<path d="M10.3236 5.0008C11.7046 5.0008 12.824 3.88133 12.824 2.5004C12.824 1.11947 11.7046 0 10.3236 0C8.94271 0 7.82324 1.11947 7.82324 2.5004C7.82324 3.88133 8.94271 5.0008 10.3236 5.0008Z" fill="white" fill-opacity="0.7"/>
<path d="M0.948385 19.9975C10.6946 18.0977 8.80239 7.46492 18.0422 11.0907C18.266 11.1785 18.4604 10.9079 18.3036 10.7257C15.7684 7.77972 6.97498 0.405118 0.770785 19.7593C0.732985 19.8771 0.827185 20.0211 0.948585 19.9975H0.948385Z" fill="white" fill-opacity="0.7"/>
<path d="M14.4772 18.853C14.2472 18.853 14.0604 18.6664 14.0604 18.4362V13.4354C14.0604 13.2054 14.247 13.0186 14.4772 13.0186C14.7074 13.0186 14.894 13.2052 14.894 13.4354V18.4362C14.894 18.6662 14.7074 18.853 14.4772 18.853Z" fill="white" fill-opacity="0.7"/>
<path d="M16.9777 16.3526H11.9769C11.7469 16.3526 11.5601 16.166 11.5601 15.9358C11.5601 15.7056 11.7467 15.519 11.9769 15.519H16.9777C17.2077 15.519 17.3945 15.7056 17.3945 15.9358C17.3945 16.166 17.2079 16.3526 16.9777 16.3526Z" fill="white" fill-opacity="0.7"/>
</g>
<defs>
<clipPath id="clip0_389_90">
<rect width="20" height="20" fill="white"/>
</clipPath>
</defs>
</svg>
